<svg id="LogoBlack" xmlns="http://www.w3.org/2000/svg" viewBox="0 0 802.53 480.85"><defs><style>.cls-1{fill:#fff;}.cls-2{font-size:84px;font-family:AcierBATText-Solid, Acier BAT;}.cls-3{font-size:103px;font-family:MyriadPro-Regular, Myriad Pro;}</style></defs><g id="PetPortfolioLogo"><path d="M358.55,91.45C323,92.83,287.8,95.93,253.22,102.14q-13,2.33-25.76,5.23c-8.52,2-17,4.13-25.38,6.57s-16.69,5.06-24.85,8-16.24,6.17-24.09,9.79a244.16,244.16,0,0,0-23,11.87A189.3,189.3,0,0,0,108.93,158a139.93,139.93,0,0,0-18.56,17.33c-1.36,1.6-2.79,3.17-4.05,4.85l-1.93,2.49-1.83,2.57-.91,1.28-.86,1.32-1.7,2.64c-.55.89-1,1.81-1.58,2.72S76.45,195,76,196l-1.41,2.81c-.48.93-.86,1.9-1.3,2.86-.9,1.89-1.6,3.87-2.35,5.82-.4,1-.65,2-1,3s-.68,2-.91,3c-.5,2-1.1,4.06-1.45,6.14A90.94,90.94,0,0,0,66,232.18a99.53,99.53,0,0,0,.18,12.8A122,122,0,0,0,71,270.51c.68,2.08,1.33,4.18,2,6.27L75.31,283l2.52,6.14c.92,2,1.82,4,2.72,6.08-1.23-1.85-2.46-3.71-3.66-5.58l-3.44-5.76c-1.08-2-2.09-4-3.14-5.94s-1.91-4.06-2.88-6.1a112.32,112.32,0,0,1-7.93-26,92,92,0,0,1,6.89-54.52A109,109,0,0,1,81.21,167.6,140.94,140.94,0,0,1,100.83,148a188.81,188.81,0,0,1,22.47-15.88,244.61,244.61,0,0,1,24.2-12.7q12.42-5.62,25.25-10.07c8.56-2.92,17.2-5.56,25.93-7.81a399.65,399.65,0,0,1,53-9.93A450.28,450.28,0,0,1,358.55,91.45Z" transform="translate(-40.33 -45.13)"/><path d="M775.26,412c13.78-12.61,26.85-26,37.09-41.15a127.75,127.75,0,0,0,12.85-23.83,89.39,89.39,0,0,0,6.2-25.69,78.14,78.14,0,0,0,0-13.07c-.09-2.18-.51-4.33-.77-6.49l-.61-3.21-.31-1.6-.4-1.59-.81-3.17-1-3.12-.5-1.56-.58-1.54-1.15-3.08A111,111,0,0,0,819.55,271a136.52,136.52,0,0,0-15.29-21.86,205.5,205.5,0,0,0-18.88-19.39,322,322,0,0,0-43.89-32.74,532.4,532.4,0,0,0-48.32-26.94c-33.19-16.45-67.83-30.21-103-43l.06-.23a536.49,536.49,0,0,1,54.55,13.84,526.76,526.76,0,0,1,53,19.52A423.93,423.93,0,0,1,748.32,186a293.35,293.35,0,0,1,46.17,33.77,198,198,0,0,1,20,20.9c3.11,3.73,6,7.67,8.78,11.68A135.69,135.69,0,0,1,830.83,265a116.31,116.31,0,0,1,6.08,13.51L838.1,282l.59,1.76.5,1.8,1,3.59.8,3.66.39,1.82.29,1.85c.19,1.23.4,2.46.57,3.7.19,2.49.54,5,.54,7.46a90.5,90.5,0,0,1-.68,14.91c-.42,2.45-.73,4.92-1.34,7.32-.28,1.2-.53,2.41-.85,3.61l-1,3.55c-.18.59-.34,1.18-.53,1.77l-.62,1.73L836.47,344,835,347.37c-.48,1.12-.93,2.25-1.5,3.33A123.76,123.76,0,0,1,818,375.05a170.32,170.32,0,0,1-19.8,20.46c-.89.78-1.76,1.58-2.66,2.34l-2.74,2.25c-1.82,1.5-3.62,3-5.52,4.4-3.73,2.87-7.57,5.58-11.43,8.23Z" transform="translate(-40.33 -45.13)"/><g id="CatWhiteBackground"><path class="cls-1" d="M334.59,325.31l-125,26.05s-3.83-27.32-15.44-32.81-27.2-1.41-39.71-6S138.12,298.38,133.91,292s-7.68-9.44-10.72-15.7-4.85-15.7-2.3-28.08,20.17-14.68,28.72-31.28c11.06-34.84,31.93-52.28,63.49-57.89h.17c1.88-2.84,5.47-8.39,6.67-12.74,3.4-12.32,2.87-18.34,3-25.14.25-17,7.27-14,14.4-3.43,11.52,17.11,32.77,34.61,33.8,38.83,0,0,12.66-9.1,16.42-13.37,5.09-5.8,11.69-15.54,22.13-16.16a18.25,18.25,0,0,1,10.72,2.54c13.06,9.56,17.47,36.58,16.29,54.23a52.14,52.14,0,0,1-2.07,11.4v0C347.76,233.91,351.7,291.1,334.59,325.31Z" transform="translate(-40.33 -45.13)"/></g><path d="M171,230.71a19.28,19.28,0,0,0,8.12,2.69,18.29,18.29,0,0,0,2.09,0l.51,0,.61,0h1.17a10.74,10.74,0,0,0,3.79-.71,9,9,0,0,0,3-2.1c.23-.21.42-.49.64-.71l.42-.48.47-.49c.58-.56,1.07-1,1.5-1.53a5.87,5.87,0,0,0,1.58-2.79,8.26,8.26,0,0,0-.58-3.26,13.55,13.55,0,0,0-1.65-3.39,9.22,9.22,0,0,0-1.2-1.25,10.66,10.66,0,0,0-1.48-1.07,7.94,7.94,0,0,0-3.28-1.13,7,7,0,0,0-1.71,0l-.43.07h-.07s0,0-.07,0a6.39,6.39,0,0,0-.78.37,39.11,39.11,0,0,0-3.59,2.28l-.84.63-.38.29c-.12.09-.26.23-.39.35-.53.49-1,1-1.54,1.53a52.33,52.33,0,0,0-5.54,6.92l-.9-.43a31.23,31.23,0,0,1,4.13-8.37c.45-.64.92-1.28,1.42-1.9l.38-.47.44-.5c.28-.31.58-.58.87-.87a31.2,31.2,0,0,1,3.71-3.07,12,12,0,0,1,1.21-.73,3.58,3.58,0,0,1,.45-.19,3.34,3.34,0,0,1,.48-.15l.68-.15a11.9,11.9,0,0,1,2.8-.2,12.18,12.18,0,0,1,5.29,1.59,14.35,14.35,0,0,1,2.21,1.55,13.25,13.25,0,0,1,1.93,2,17.5,17.5,0,0,1,2.31,4.73,16.72,16.72,0,0,1,.64,2.53c0,.22.07.44.1.68l0,.35,0,.42a7.62,7.62,0,0,1-.15,1.65,9.89,9.89,0,0,1-2.93,4.93c-.6.61-1.24,1.15-1.77,1.61l-.34.31-.35.35a10.1,10.1,0,0,1-.94.91,12.92,12.92,0,0,1-4.62,2.62,12.71,12.71,0,0,1-5.16.44l-1.08-.13a5.05,5.05,0,0,0-.54,0l-.61,0a15.38,15.38,0,0,1-2.43-.39,18,18,0,0,1-8.31-4.53Z" transform="translate(-40.33 -45.13)"/><path d="M137.09,251.35a13.65,13.65,0,0,1-.84,5.65,14.52,14.52,0,0,1-3.17,5,14,14,0,0,1-5.16,3.41,9.81,9.81,0,0,1-1.54.47,9.38,9.38,0,0,1-1.6.27,11.47,11.47,0,0,1-1.66.05,4.73,4.73,0,0,1-.83-.07c-.14,0-.27-.11-.36-.43l-.06-.25,0-.34c0-.31,0-.66,0-1l.19-1,.32-.95.13-.32.1-.23c.13-.29.22-.37.3-.34a4.07,4.07,0,0,0,.49.05,8.51,8.51,0,0,0,1,0,8.89,8.89,0,0,0,1-.13,6.43,6.43,0,0,0,1-.25,12.61,12.61,0,0,0,3.93-2,15.72,15.72,0,0,0,3.3-3.36,21.2,21.2,0,0,0,2.46-4.43Z" transform="translate(-40.33 -45.13)"/><path d="M246.38,166A120.49,120.49,0,0,0,269,155.19a73.81,73.81,0,0,0,9.78-7.43,56.18,56.18,0,0,0,4.32-4.27c1.38-1.49,2.61-3,3.92-4.72a60.67,60.67,0,0,1,9.14-9.84,25.69,25.69,0,0,1,6.22-3.84,22,22,0,0,1,14.89-.9,20,20,0,0,1,3.63,1.38c.31.16.61.31,1,.52l.53.34a3.87,3.87,0,0,1,.42.33l1.43,1.19a36.39,36.39,0,0,1,8.35,11.38c4,8.24,5.84,17,6.85,25.67a108.83,108.83,0,0,1,.59,13.14c-.06,2.2-.18,4.38-.43,6.6a53,53,0,0,1-1.15,6.64,56.11,56.11,0,0,1-12,23.47,79.15,79.15,0,0,1-19.78,16.57l-.59-.8c6.52-5.45,12.56-11.34,17.26-18.15a62.29,62.29,0,0,0,6-10.69c.46-.91.73-1.89,1.1-2.84a28.41,28.41,0,0,0,1-2.87l.81-2.91c.25-1,.38-2,.58-2.95a47.72,47.72,0,0,0,.7-6c.13-2,.13-4.07.07-6.12a107.5,107.5,0,0,0-1-12.28,102.13,102.13,0,0,0-2.49-12A59.67,59.67,0,0,0,326,142.64a29.46,29.46,0,0,0-6.6-9l-1-.86a1,1,0,0,0-.2-.17l-.13-.09-.44-.25a14.36,14.36,0,0,0-2.32-.89,16.68,16.68,0,0,0-5.11-.65,16.85,16.85,0,0,0-9.61,3.76,59.63,59.63,0,0,0-8.53,8.46c-1.4,1.58-2.94,3.26-4.56,4.78a59.41,59.41,0,0,1-5,4.36,69.65,69.65,0,0,1-11.17,7A87.8,87.8,0,0,1,246.64,167Z" transform="translate(-40.33 -45.13)"/><path d="M209.12,351.43c-4-15.24-9.17-34.68-27.06-33-4-.26-8.06-.21-12.26-.29a60.31,60.31,0,0,1-13-1.37,34.58,34.58,0,0,1-12.44-5.68,38.26,38.26,0,0,1-9.19-10c-1.2-1.82-2.28-3.65-3.34-5.34s-2.14-3.26-3.32-4.86L124.79,286a53.42,53.42,0,0,1-3.71-5.54,37.8,37.8,0,0,1-2.84-6.27,40.59,40.59,0,0,1-1.66-6.62,51.06,51.06,0,0,1-.35-13.34c.22-2.2.57-4.37,1-6.51a18.22,18.22,0,0,1,3.07-7,28.06,28.06,0,0,1,4.91-5.14c1.72-1.45,3.45-2.71,5.14-3.92a84.09,84.09,0,0,0,9.37-7.33,34.17,34.17,0,0,0,6.85-8.89l-.22.54a120.54,120.54,0,0,1,6.87-16.77,87.79,87.79,0,0,1,9.92-15.32,70.91,70.91,0,0,1,29.27-21.34,92.62,92.62,0,0,1,17.37-4.89,131.6,131.6,0,0,1,17.77-1.88,207.45,207.45,0,0,1,35.35,2l-.1,1a238.16,238.16,0,0,0-35,.27c-11.56,1.06-23,3.42-33.45,8a68.11,68.11,0,0,0-26.43,20.61,81.85,81.85,0,0,0-8.78,14.47A112.93,112.93,0,0,0,152.89,218l-.08.26-.14.28a41.37,41.37,0,0,1-8,10.83,89.67,89.67,0,0,1-10,8.13c-3.3,2.42-6.47,4.76-8.33,7.43a10.52,10.52,0,0,0-1.83,4.25c-.37,1.91-.67,3.83-.85,5.75-.73,7.67.3,15.43,4,21.77a43.8,43.8,0,0,0,3.17,4.77c1.18,1.59,2.48,3.24,3.75,5s2.5,3.55,3.62,5.42,2.1,3.58,3.16,5.22a32.73,32.73,0,0,0,7.27,8.39,27.61,27.61,0,0,0,9.84,4.84,62.31,62.31,0,0,0,11.6,1.7c4.06.28,8.24.43,12.51.93a38.72,38.72,0,0,1,12.74,3.62,17.1,17.1,0,0,1,5.35,4.65,31.91,31.91,0,0,1,3.39,5.68,58.76,58.76,0,0,1,4.06,12.05,85.31,85.31,0,0,1,2,12.38Z" transform="translate(-40.33 -45.13)"/><path d="M214.5,157a48.31,48.31,0,0,0,2.5-6.61c.33-1.12.62-2.23.85-3.36s.39-2.29.6-3.45a85.89,85.89,0,0,0,1.26-13.83c0-2.29-.1-4.61-.16-7.05a46.25,46.25,0,0,1,.32-7.71,18.66,18.66,0,0,1,1.07-4.27,10.3,10.3,0,0,1,1.32-2.39,8.07,8.07,0,0,1,1.14-1.23,6.74,6.74,0,0,1,1.66-1,6.62,6.62,0,0,1,3.82-.41,8.7,8.7,0,0,1,2.76,1,17,17,0,0,1,3.6,2.81,39.48,39.48,0,0,1,4.88,6.18c1.28,1.94,2.58,3.84,4,5.7,2.78,3.75,5.79,7.39,8.87,11l9.39,10.84c1.56,1.84,3.16,3.65,4.65,5.58.75,1,1.5,1.93,2.19,3a16.3,16.3,0,0,1,1,1.63,5.13,5.13,0,0,1,.41.92,2.53,2.53,0,0,1,.13,1.2l-1-.15a3.54,3.54,0,0,0-.75-1.18,15.38,15.38,0,0,0-1.19-1.24c-.85-.81-1.73-1.6-2.63-2.38l-5.46-4.66c-3.67-3.12-7.3-6.32-10.79-9.7a131,131,0,0,1-10-10.72c-1.56-1.9-3.1-3.87-4.51-5.91a36.75,36.75,0,0,0-4.13-5,10.12,10.12,0,0,0-2-1.62,1.8,1.8,0,0,0-.59-.24.59.59,0,0,0,.3-.07c.36-.25-.08,0-.35.75a14,14,0,0,0-.72,2.69c-.72,4.11-.48,9-1,14a62.79,62.79,0,0,1-3.25,14.56,42.29,42.29,0,0,1-2.95,6.88,32.71,32.71,0,0,1-4.32,6.05Z" transform="translate(-40.33 -45.13)"/><path d="M334.15,325.1a144.32,144.32,0,0,0,6.56-32,244.76,244.76,0,0,0,.85-32.5c-.42-10.85-1.34-21.69-2.66-32.52s-3-21.64-4.78-32.68l.95-.32c1.29,2.49,2.5,5,3.65,7.61s2.1,5.22,3,7.88c.44,1.33.88,2.67,1.3,4s.87,2.68,1.22,4q1.08,4.08,2.07,8.19a168.77,168.77,0,0,1,3.88,33.55,153.7,153.7,0,0,1-2.91,33.75c-2.3,11.06-6.05,22-12.26,31.44Z" transform="translate(-40.33 -45.13)"/><g id="DogWhiteBackground"><path class="cls-1" d="M724,323.78c-2.71,20.55-11.49,42.09-24.51,64.34-.38,4.15-26.21,40.17-66.38,33.7l-80.68-14.29c-12.45,12.57-23.35,24.75-30.3,40.85l-212.26-81.7c35.53-20.82,60.13-69.83,62.4-105.52a159,159,0,0,1-11.77-19,17.48,17.48,0,0,1-1.21-12.82c9.61-34.17,39.31-50.66,63.62-55.89,3.26-.7,6-2.86,8.69-4.86,29.34-21.92,53.76-32.41,75.89-23.56,98.61,0,163.32,52.1,146.36,111,13.34,17.76,31.06,31.18,53.81,42.21C725.82,305.06,725.31,314.08,724,323.78Z" transform="translate(-40.33 -45.13)"/></g><path d="M309.58,366.25a179,179,0,0,0,21.19-22.79,220.48,220.48,0,0,0,17-25.39,254.84,254.84,0,0,0,13.65-27.44,242.51,242.51,0,0,0,10.33-29.5l1,.07a81,81,0,0,1,.56,8.12c0,1.35-.06,2.71-.09,4.07l-.08,2.05c-.05.68-.13,1.35-.2,2A100.81,100.81,0,0,1,370,293.54a124,124,0,0,1-12.45,30.19,115.5,115.5,0,0,1-20.06,25.88q-3.06,2.76-6.18,5.42c-2.2,1.66-4.43,3.26-6.65,4.83-2.35,1.42-4.72,2.79-7.09,4.09s-5,2.2-7.52,3.16Z" transform="translate(-40.33 -45.13)"/><path d="M507.86,144.78c.08,1,.17,2,.23,3.05s.07,2,.1,2.95.05,1.91,0,2.87,0,1.91,0,2.87a81,81,0,0,1-1,11.57A54.37,54.37,0,0,1,504,179.51,51.67,51.67,0,0,1,498.11,190l.69-1.54h0c-.58,4.77-1.11,9.55-1.56,14.34s-.78,9.59-1,14.4c-.58,9.61-.85,19.26-1,28.91s-.12,19.34,0,29,.27,19.39.5,29.1v.42a58.4,58.4,0,0,1-2.34,12.88,37.74,37.74,0,0,1-6.09,12.09,30,30,0,0,1-4.85,5,27.93,27.93,0,0,1-5.89,3.62,32,32,0,0,1-6.42,2.12,41.86,41.86,0,0,1-6.54.8,60.41,60.41,0,0,1-12.73-1c-1.06-.22-2-.37-3.15-.65a28.31,28.31,0,0,1-3.2-1,35.06,35.06,0,0,1-5.83-3,60.67,60.67,0,0,1-9.88-7.95c-3-2.79-5.93-5.58-8.87-8.41-11.78-11.28-23.49-22.69-34.52-34.87s-21.42-25.08-29.36-40.2A22.31,22.31,0,0,1,354.39,229l.24-.93.23-.77.48-1.55c.3-1,.69-2.05,1.05-3.06s.77-2,1.19-3,.84-2,1.3-3a77.57,77.57,0,0,1,14.62-21.27A84,84,0,0,1,394,180a97.72,97.72,0,0,1,23.63-9.12c1-.23,2.06-.49,3.09-.69l1.51-.31a8.25,8.25,0,0,0,1-.27,18.43,18.43,0,0,0,4.47-2.45l5-3.51c1.69-1.17,3.4-2.33,5.11-3.47A170.39,170.39,0,0,1,459.35,148a80.19,80.19,0,0,1,23.89-7.13,49.87,49.87,0,0,1,12.51.16,41.9,41.9,0,0,1,6.09,1.36c1,.3,2,.61,2.93,1l.73.27c.26.1.54.23.81.35C506.85,144.28,507.37,144.54,507.86,144.78Zm-.83.56c-.46-.1-.89-.2-1.3-.31l-.63-.18-.72-.19c-1-.27-1.95-.48-2.93-.68a42.34,42.34,0,0,0-5.92-.72,47.23,47.23,0,0,0-11.81.84,79.25,79.25,0,0,0-22.16,8.37,170.23,170.23,0,0,0-20.16,13q-2.43,1.78-4.83,3.61l-4.82,3.73a25.25,25.25,0,0,1-6.07,3.61,14,14,0,0,1-1.9.6l-1.46.37c-.95.23-1.89.51-2.83.77-15,4.31-29.05,12.25-39.48,23.47a68.13,68.13,0,0,0-12.55,19c-.39.87-.77,1.74-1.1,2.63s-.7,1.77-1,2.68-.63,1.8-.88,2.72l-.42,1.37-.21.68-.14.55a12.72,12.72,0,0,0,.91,8.63l2.78,5.1c1,1.69,2,3.41,3,5.09s2.1,3.35,3.2,5,2.22,3.3,3.37,4.93c4.51,6.57,9.45,12.91,14.49,19.18s10.32,12.4,15.7,18.44,10.92,12,16.58,17.77c2.82,2.91,5.68,5.79,8.54,8.67a53.42,53.42,0,0,0,9,7.47,30.44,30.44,0,0,0,5,2.61,20.76,20.76,0,0,0,2.6.85l.66.17.72.14,1.45.27a41.6,41.6,0,0,0,11.55.47,25.13,25.13,0,0,0,10.43-3.34,21.28,21.28,0,0,0,4.15-3.25,23.08,23.08,0,0,0,3.19-4.16,34.23,34.23,0,0,0,3.94-10,69.07,69.07,0,0,0,1.54-11.17v.43c-.26-9.73-.52-19.48-.6-29.24s0-19.53.31-29.31.89-19.58,1.82-29.35q.75-7.33,1.78-14.64c.34-2.43.74-4.86,1.11-7.29l1.36-7.26h0l.23-1,.47-.51a45.68,45.68,0,0,0,6.29-8.62,49.2,49.2,0,0,0,4.21-10,77,77,0,0,0,2.35-10.9c.15-.92.25-1.86.37-2.79s.23-1.87.31-2.81C506.68,148.74,506.81,147.2,507,145.34Z" transform="translate(-40.33 -45.13)"/><path d="M502.6,333c2.54,4.94,4.81,9.91,7.29,14.72a128.19,128.19,0,0,0,8.2,13.84c3,4.41,6.38,8.63,9.81,12.85s7,8.45,10.18,13a113.54,113.54,0,0,1-12.68-10.68A84.79,84.79,0,0,1,514.56,364,69.36,69.36,0,0,1,506.87,349,82.38,82.38,0,0,1,502.6,333Z" transform="translate(-40.33 -45.13)"/><path d="M522.08,448.38a100.62,100.62,0,0,1,11.69-23,222.13,222.13,0,0,1,15.92-20.49l1.11-1.29,2.24.23h0l79.52,12.93,1.24.2,1.13.15c.74.11,1.53.17,2.29.25,1.54.11,3.07.2,4.61.19a52.72,52.72,0,0,0,9.14-.79,56.73,56.73,0,0,0,17.31-6.09,71.54,71.54,0,0,0,21.27-17.81,44.72,44.72,0,0,0,2.63-3.62c.39-.6.76-1.2,1-1.73a5.76,5.76,0,0,0,.33-.68c0-.06.06-.14,0-.09v0a1,1,0,0,0,0,.14,3.58,3.58,0,0,0-.12.67h0l.81-2.5a249.16,249.16,0,0,0,12.33-22c1.86-3.76,3.59-7.58,5.16-11.46s3-7.79,4.26-11.77a117.48,117.48,0,0,0,3.16-12.06q.61-3.06,1.12-6.16a32.37,32.37,0,0,0,.47-5.71,11.72,11.72,0,0,0-4.07-8.88,34.24,34.24,0,0,0-10.09-5.93l-.22-.09,0,0a188,188,0,0,1-21.09-12.73,140.65,140.65,0,0,1-18.88-15.8,123.06,123.06,0,0,1-15.5-19,132,132,0,0,1-11.44-21.51l.28-.13a130.68,130.68,0,0,0,12.59,20.64,120.16,120.16,0,0,0,16.25,17.69c12,10.68,25.86,18.86,40.42,25.4l-.26-.11a40.13,40.13,0,0,1,12.43,6.44,20,20,0,0,1,5,6,19.41,19.41,0,0,1,2.18,7.58,39.39,39.39,0,0,1-.15,7.17c-.22,2.19-.48,4.4-.8,6.61a128.4,128.4,0,0,1-2.61,13.09c-1.06,4.31-2.35,8.57-3.78,12.75s-3,8.33-4.73,12.4a258.85,258.85,0,0,1-11.52,23.76l.8-2.5h0a8.15,8.15,0,0,1-.48,2.06c-.17.45-.3.75-.45,1.07-.28.6-.55,1.09-.82,1.57-.54.93-1.07,1.74-1.62,2.54-1.1,1.57-2.24,3-3.42,4.43a81.9,81.9,0,0,1-7.56,7.79,80.88,80.88,0,0,1-17.79,12.25A67.43,67.43,0,0,1,652.6,427a63.48,63.48,0,0,1-10.93.64c-1.82,0-3.64-.2-5.44-.39-.91-.12-1.8-.21-2.72-.37l-1.36-.22-1.23-.23-79.2-15.19h0l3.35-1.07a216.58,216.58,0,0,0-18.32,17.5A98.7,98.7,0,0,0,522.08,448.38Z" transform="translate(-40.33 -45.13)"/><path d="M674.26,308.81c3.69,3.84,6.75,7.48,10,10.6a32.71,32.71,0,0,0,2.47,2.26,23.72,23.72,0,0,0,2.58,2,33.06,33.06,0,0,0,5.57,3.16,37,37,0,0,0,12.5,2.91,83.7,83.7,0,0,0,13.54-.42l1.65,9a49.14,49.14,0,0,1-15.93,1.47,37.68,37.68,0,0,1-15.93-4.66,34.44,34.44,0,0,1-12-11.25A28.25,28.25,0,0,1,674.26,308.81Z" transform="translate(-40.33 -45.13)"/><path d="M590.17,243.45a73.64,73.64,0,0,0-4.95-8.89,33.41,33.41,0,0,0-6.29-7.42c-.3-.22-.61-.48-.9-.66a6.41,6.41,0,0,0-.88-.5,6.24,6.24,0,0,0-1.89-.51,8.45,8.45,0,0,0-4,.62,13.56,13.56,0,0,0-2,1c-.8.44-1.48.83-2.19,1.26a39.57,39.57,0,0,0-4,2.68,9.94,9.94,0,0,0-2.67,2.91,1,1,0,0,0-.13.69,3,3,0,0,0,.76.9,16.3,16.3,0,0,0,3.77,2.14,46.12,46.12,0,0,0,4.54,1.68c3.13,1,6.37,1.82,9.65,2.54a73.32,73.32,0,0,0,10,1.55,33.26,33.26,0,0,1-10.37,1.3,52.79,52.79,0,0,1-10.45-1.18,37.16,37.16,0,0,1-5.19-1.5,18.22,18.22,0,0,1-5.14-2.79,6.65,6.65,0,0,1-.63-.58,5.18,5.18,0,0,1-.62-.68,6.12,6.12,0,0,1-1-1.88,5.69,5.69,0,0,1-.21-2.31,6.34,6.34,0,0,1,.6-2,13.14,13.14,0,0,1,4.15-4.6,34.37,34.37,0,0,1,4.61-2.9c.77-.42,1.6-.83,2.31-1.19a18.16,18.16,0,0,1,2.67-1.14,11.66,11.66,0,0,1,6.08-.41,10.1,10.1,0,0,1,2.93,1.12,11.58,11.58,0,0,1,1.28.88c.4.32.72.65,1.08,1a23.76,23.76,0,0,1,3.33,4.32,34.62,34.62,0,0,1,2.46,4.66,42.72,42.72,0,0,1,1.87,4.86A37.58,37.58,0,0,1,590.17,243.45Z" transform="translate(-40.33 -45.13)"/><path d="M653.57,256.86a75.89,75.89,0,0,0,.58-26.09,11,11,0,0,0-.28-1.59l-.35-1.57c-.25-1-.41-2.1-.73-3.12l-.95-3.07c-.16-.51-.28-1-.47-1.52l-.59-1.49-1.15-3-1.37-2.88c-.84-2-2-3.75-3-5.61a87.29,87.29,0,0,0-16.31-19.57,121.35,121.35,0,0,0-20.8-15.16c-1.83-1.15-3.77-2.12-5.67-3.15s-3.86-2-5.81-2.9c-1-.47-1.94-1-2.94-1.4l-3-1.29-3-1.29L584.67,161c-2-.79-4-1.61-6.13-2.27l-3.09-1.06c-1-.35-2.06-.72-3.11-1l-6.28-1.91-6.35-1.67c-2.12-.56-4.27-1-6.4-1.49s-4.29-1-6.45-1.37c-4.3-.92-8.66-1.51-13-2.27-8.73-1.28-17.54-2.14-26.4-2.89a222.53,222.53,0,0,1,26.72-.26c4.45.29,8.92.6,13.36,1.19,2.22.26,4.45.5,6.66.88s4.44.69,6.64,1.12c17.63,3.32,35,9.08,50.85,18a115.84,115.84,0,0,1,22.08,16.13c.83.79,1.68,1.56,2.48,2.38l2.36,2.52c1.61,1.64,3,3.49,4.46,5.27.75.88,1.4,1.83,2.06,2.78l2,2.83c.62,1,1.19,2,1.78,3s1.23,1.95,1.71,3a65.08,65.08,0,0,1,7.46,26.4A61.67,61.67,0,0,1,653.57,256.86Z" transform="translate(-40.33 -45.13)"/><text class="cls-2" transform="translate(25.94 262.38) rotate(58.19) scale(1.2 1)">p</text><text class="cls-2" transform="matrix(0.92, 0.77, -0.64, 0.76, 64.86, 318.12)">e</text><text class="cls-2" transform="matrix(1.03, 0.62, -0.52, 0.86, 108.32, 353.49)">t</text><text class="cls-2" transform="translate(150.66 378.32) rotate(26.35) scale(1.2 1)"> </text><text class="cls-2" transform="translate(177.86 392.15) rotate(21.85) scale(1.2 1)">P</text><text class="cls-2" transform="translate(227.75 412.65) rotate(16.42) scale(1.2 1)">o</text><text class="cls-2" transform="translate(303.97 434.41) rotate(11.34) scale(1.2 1)">r</text><text class="cls-2" transform="translate(368.78 446.79) rotate(6.88) scale(1.2 1)">t</text><text class="cls-2" transform="translate(427.45 453.38) rotate(2.54) scale(1.2 1)">f</text><text class="cls-2" transform="matrix(1.2, -0.08, 0.06, 1, 486.59, 456.17)">o</text><text class="cls-2" transform="translate(577.26 448.77) rotate(-11.21) scale(1.2 1)">l</text><text class="cls-2" transform="matrix(1.15, -0.36, 0.3, 0.95, 638.1, 435.39)">i</text><text class="cls-2" transform="translate(677.83 424.1) rotate(-27.51) scale(1.2 1)">o</text><text class="cls-3" transform="matrix(0.9, -0.79, 0.66, 0.75, 759.49, 376.02)"> </text><text class="cls-2" transform="translate(303.59 71.16) rotate(0.5) scale(1.2 1)">y</text><text class="cls-2" transform="translate(360.06 71.16) rotate(5.35) scale(1.2 1)">o</text><text class="cls-2" transform="translate(436.52 78.77) rotate(10.22) scale(1.2 1)">u</text><text class="cls-2" transform="matrix(1.16, 0.3, -0.25, 0.97, 493.93, 89.2)">r</text><text class="cls-2" transform="matrix(1.15, 0.36, -0.3, 0.95, 547.31, 103.28)"> </text></g></svg>